<?xml version="1.0" standalone="no"?><!DOCTYPE svg PUBLIC "-//W3C//DTD SVG 1.1//EN" "http://www.w3.org/Graphics/SVG/1.1/DTD/svg11.dtd"><svg xmlns:xlink="http://www.w3.org/1999/xlink" version="1.1" style="font-family:'lucida grande', 'lucida sans unicode', arial, helvetica, sans-serif;font-size:12px;" xmlns="http://www.w3.org/2000/svg" width="600" height="400"><desc>Created with Highcharts 4.2.7</desc><defs><radialGradient cx="0.5" cy="0.3" r="0.7" id="highcharts-30"><stop offset="0" stop-color="#bd6825" stop-opacity="1"></stop><stop offset="1" stop-color="rgb(113,28,0)" stop-opacity="1"></stop></radialGradient><radialGradient cx="0.5" cy="0.3" r="0.7" id="highcharts-31"><stop offset="0" stop-color="#562e07" stop-opacity="1"></stop><stop offset="1" stop-color="rgb(10,0,0)" stop-opacity="1"></stop></radialGradient><radialGradient cx="0.5" cy="0.3" r="0.7" id="highcharts-32"><stop offset="0" stop-color="#dd9200" stop-opacity="1"></stop><stop offset="1" stop-color="rgb(145,70,0)" stop-opacity="1"></stop></radialGradient><clipPath id="highcharts-33"><rect x="0" y="0" width="580" height="308"></rect></clipPath><radialGradient cx="296.5" cy="99" r="192.5" id="highcharts-34" gradientUnits="userSpaceOnUse"><stop offset="0" stop-color="#bd6825" stop-opacity="1"></stop><stop offset="1" stop-color="rgb(113,28,0)" stop-opacity="1"></stop></radialGradient><radialGradient cx="296.5" cy="99" r="192.5" id="highcharts-35" gradientUnits="userSpaceOnUse"><stop offset="0" stop-color="#562e07" stop-opacity="1"></stop><stop offset="1" stop-color="rgb(10,0,0)" stop-opacity="1"></stop></radialGradient><radialGradient cx="296.5" cy="99" r="192.5" id="highcharts-36" gradientUnits="userSpaceOnUse"><stop offset="0" stop-color="#dd9200" stop-opacity="1"></stop><stop offset="1" stop-color="rgb(145,70,0)" stop-opacity="1"></stop></radialGradient></defs><g class="highcharts-series-group"><g class="highcharts-series highcharts-series-0" transform="translate(10,36) scale(1 1)"><path fill="url(#highcharts-34)" d="M 296.97199493449193 16.500002851940735 A 137.5 137.5 0 0 1 427.8194401045532 196.33821076440546 L 297 154 A 0 0 0 0 0 297 154 Z" stroke="#FFFFFF" stroke-width="1" stroke-linejoin="round" transform="translate(0,0)"></path><path fill="url(#highcharts-35)" d="M 427.77703649113056 196.46900901360317 A 137.5 137.5 0 0 1 297.10949492272584 291.49995640312727 L 297 154 A 0 0 0 0 0 297 154 Z" stroke="#FFFFFF" stroke-width="1" stroke-linejoin="round" transform="translate(0,0)"></path><path fill="url(#highcharts-36)" d="M 296.97199493449193 291.49999714805926 A 137.5 137.5 0 0 1 296.80901525851516 16.500132637051166 L 297 154 A 0 0 0 0 0 297 154 Z" stroke="#FFFFFF" stroke-width="1" stroke-linejoin="round" transform="translate(0,0)"></path></g><g class="highcharts-markers highcharts-series-0" transform="translate(10,36) scale(1 1)"></g></g><text x="300" text-anchor="middle" class="highcharts-title" style="color:#000000;font-size:10px;font-family:'arial', sans-serif;fill:#000000;width:536px;" y="17"><tspan>Learning Style</tspan></text><g class="highcharts-data-labels highcharts-series-0" transform="translate(10,36) scale(1 1)" opacity="1"><path fill="none" d="M 437.0103465578037 55.54597024101075 C 432.0103465578037 55.54597024101075 425.53821060280416 60.24825225935054 416.6390236646797 66.71389003456774 L 407.73983672655527 73.17952780978494" stroke="url(#highcharts-30)" stroke-width="1"></path><path fill="none" d="M 399.95402975898924 289.5103465578037 C 394.95402975898924 289.5103465578037 390.2517477406495 283.03821060280416 383.7861099654323 274.1390236646797 L 377.32047219021507 265.23983672655527" stroke="url(#highcharts-31)" stroke-width="1"></path><path fill="none" d="M 124 154.00000000000003 C 129 154.00000000000003 137 154.00000000000003 148 154.00000000000003 L 159 154.00000000000003" stroke="url(#highcharts-32)" stroke-width="1"></path><g style="cursor:pointer;" transform="translate(442,46)"><text x="5" style="font-size:10px;font-weight:bold;font-family:'arial', sans-serif;color:#000000;text-shadow:0 0 6px #ffffff, 0 0 3px #ffffff;fill:#000000;text-rendering:geometricprecision;" y="15"><tspan>Visual : 30 Percentage</tspan></text></g><g style="cursor:pointer;" transform="translate(405,280)"><text x="5" style="font-size:10px;font-weight:bold;font-family:'arial', sans-serif;color:#000000;text-shadow:0 0 6px #ffffff, 0 0 3px #ffffff;fill:#000000;text-rendering:geometricprecision;" y="15"><tspan>Auditory : 20 Percentage</tspan></text></g><g style="cursor:pointer;" transform="translate(0,144)"><text x="5" style="font-size:10px;font-weight:bold;font-family:'arial', sans-serif;color:#000000;text-shadow:0 0 6px #ffffff, 0 0 3px #ffffff;fill:#000000;text-rendering:geometricprecision;" y="15"><tspan>Tactile : 50 Percentage</tspan></text></g></g><g class="highcharts-legend" transform="translate(177,356)"><g><g><g class="highcharts-legend-item" transform="translate(8,3)"><text x="21" style="color:#333;font-size:9pt;font-weight:normal;cursor:pointer;font-family:'lucida grande','lucida sans unicode',arial,helvetica,sans-serif;text-transform:none;fill:#333;" text-anchor="start" y="15">Visual</text><rect x="0" y="4" width="16" height="12" fill="url(#highcharts-30)"></rect></g><g class="highcharts-legend-item" transform="translate(84.96875,3)"><text x="21" y="15" style="color:#333;font-size:9pt;font-weight:normal;cursor:pointer;font-family:'lucida grande','lucida sans unicode',arial,helvetica,sans-serif;text-transform:none;fill:#333;" text-anchor="start">Auditory</text><rect x="0" y="4" width="16" height="12" fill="url(#highcharts-31)"></rect></g><g class="highcharts-legend-item" transform="translate(177.484375,3)"><text x="21" y="15" style="color:#333;font-size:9pt;font-weight:normal;cursor:pointer;font-family:'lucida grande','lucida sans unicode',arial,helvetica,sans-serif;text-transform:none;fill:#333;" text-anchor="start">Tactile</text><rect x="0" y="4" width="16" height="12" fill="url(#highcharts-32)"></rect></g></g></g></g><g class="highcharts-tooltip" display="none" style="cursor:default;padding:0;pointer-events:none;white-space:nowrap;" transform="translate(0,0)"><path fill="none" d="M 3.5 0.5 L 13.5 0.5 C 16.5 0.5 16.5 0.5 16.5 3.5 L 16.5 13.5 C 16.5 16.5 16.5 16.5 13.5 16.5 L 3.5 16.5 C 0.5 16.5 0.5 16.5 0.5 13.5 L 0.5 3.5 C 0.5 0.5 0.5 0.5 3.5 0.5"  stroke="black" stroke-opacity="0.049999999999999996" stroke-width="5" transform="translate(1, 1)"></path><path fill="none" d="M 3.5 0.5 L 13.5 0.5 C 16.5 0.5 16.5 0.5 16.5 3.5 L 16.5 13.5 C 16.5 16.5 16.5 16.5 13.5 16.5 L 3.5 16.5 C 0.5 16.5 0.5 16.5 0.5 13.5 L 0.5 3.5 C 0.5 0.5 0.5 0.5 3.5 0.5"  stroke="black" stroke-opacity="0.09999999999999999" stroke-width="3" transform="translate(1, 1)"></path><path fill="none" d="M 3.5 0.5 L 13.5 0.5 C 16.5 0.5 16.5 0.5 16.5 3.5 L 16.5 13.5 C 16.5 16.5 16.5 16.5 13.5 16.5 L 3.5 16.5 C 0.5 16.5 0.5 16.5 0.5 13.5 L 0.5 3.5 C 0.5 0.5 0.5 0.5 3.5 0.5"  stroke="black" stroke-opacity="0.15" stroke-width="1" transform="translate(1, 1)"></path><path fill="rgb(249, 249, 249)" fill-opacity=" .85" d="M 3.5 0.5 L 13.5 0.5 C 16.5 0.5 16.5 0.5 16.5 3.5 L 16.5 13.5 C 16.5 16.5 16.5 16.5 13.5 16.5 L 3.5 16.5 C 0.5 16.5 0.5 16.5 0.5 13.5 L 0.5 3.5 C 0.5 0.5 0.5 0.5 3.5 0.5"></path><text x="8" style="font-size:12px;color:#000000;fill:#000000;" y="20"></text></g><text x="590" text-anchor="end" style="cursor:pointer;color:#909090;font-size:9px;fill:#909090;" y="395">meta-chart.com</text></svg>